<?xml version="1.0" encoding="UTF-8" standalone="no"?> <svg id="Layer_1" data-name="Layer 1" viewBox="0 0 933.91266 351.32999" version="1.1" sodipodi:docname="ark.svg" width="933.91266" height="351.32999" xmlns:inkscape="http://www.inkscape.org/namespaces/inkscape" xmlns:sodipodi="http://sodipodi.sourceforge.net/DTD/sodipodi-0.dtd" xmlns:xlink="http://www.w3.org/1999/xlink" xmlns="http://www.w3.org/2000/svg" xmlns:svg="http://www.w3.org/2000/svg"> <sodipodi:namedview id="namedview23" pagecolor="#ffffff" bordercolor="#000000" borderopacity="0.25" inkscape:showpageshadow="2" inkscape:pageopacity="0.0" inkscape:pagecheckerboard="0" inkscape:deskcolor="#d1d1d1" /> <defs id="defs10"> <linearGradient id="linear-gradient" x1="319.42001" y1="391.64999" x2="132.46001" y2="715.46997" gradientUnits="userSpaceOnUse"> <stop offset="0" stop-color="#ffcc19" id="stop2" /> <stop offset="1" stop-color="#ff3b04" id="stop4" /> </linearGradient> <linearGradient id="linear-gradient-2" x1="550.08002" y1="334.57001" x2="405.54001" y2="584.90002" xlink:href="#linear-gradient" gradientTransform="translate(-33.088293,-324.33)" /> <linearGradient id="linear-gradient-3" x1="953.40002" y1="352.73001" x2="749.25" y2="706.33002" xlink:href="#linear-gradient" gradientTransform="translate(-33.088293,-324.33)" /> <linearGradient id="linear-gradient-4" x1="731.78003" y1="330.63" x2="654.72998" y2="464.07999" xlink:href="#linear-gradient" gradientTransform="translate(-33.088293,-324.33)" /> <linearGradient inkscape:collect="always" xlink:href="#linear-gradient" id="linearGradient25" gradientUnits="userSpaceOnUse" x1="319.42001" y1="391.64999" x2="132.46001" y2="715.46997" gradientTransform="translate(-33.088293,-324.33)" /> </defs> <title id="title12">Ark-Logo-Only</title> <path d="m 190.66171,18.85 a 32.79,32.79 0 0 0 -59.39,0.1 l -127.3600032,273 a 41.73,41.73 0 0 0 37.8200002,59.37 v 0 a 41.73,41.73 0 0 0 37.92,-24.31 l 9.91,-21.58 36.030003,-77.76 19.19,-41.13 a 18.49,18.49 0 0 1 33.56,0.08 l 18.91,41.05 36.06,77.76 10.28,21.9 a 41.74,41.74 0 0 0 37.77,24 v 0 c 30.59,0 50.78,-31.82 37.75,-59.49 z" style="fill:url(#linearGradient25)" id="path14" /> <path d="m 558.91171,235.1 a 16.9,16.9 0 0 1 2,-19.82 128.61,128.61 0 0 0 33.18,-86 c 0,-71.19 -58.08,-129.28 -129.28,-129.28 h -172.77 a 38.88,38.88 0 0 0 -38.88,38.88 v 0 a 38.88,38.88 0 0 0 38.88,38.88 h 173.15 c 27.85,0 51.23,22.1 51.57,50 0.34,28.41 -22.27,50.75 -50.59,50.75 h -87.54 a 38.88,38.88 0 0 0 -38.88,38.88 v 1.87 a 38.88,38.88 0 0 0 38.88,38.88 h 70 a 30.53,30.53 0 0 1 26.39,15.16 l 32.22,55.27 a 45.88,45.88 0 0 0 39.67,22.75 v 0 c 35.43,0 57.49,-38.45 39.61,-69 z" style="fill:url(#linear-gradient-2)" id="path16" /> <path d="m 887.69171,351.32 v 0 a 46.12,46.12 0 0 1 -32.55,-13.44 l -95.69,-95.33 a 22.2,22.2 0 0 0 -31.54,0.19 v 0 a 22.23,22.23 0 0 0 -6.34,15.54 v 46.92 a 46.12,46.12 0 0 1 -46.12,46.12 v 0 a 46.12,46.12 0 0 1 -46.13,-46.12 v -69.17 a 60.16,60.16 0 0 1 17.53,-42.45 l 74.76,-75 104.61,-105 a 45.79,45.79 0 0 1 32.43,-13.47 v 0 c 40.74,0 61.18,49.23 32.41,78.09 l -70.42,70.47 a 17,17 0 0 0 0,24 l 99.71,100 c 29,29 8.41,78.65 -32.66,78.65 z" style="fill:url(#linear-gradient-3)" id="path18" /> <path d="m 721.57171,46.16 v 0 a 49.43,49.43 0 0 1 -14.4,34.87 l -63.93,64.18 a 8.17,8.17 0 0 1 -14,-5.76 V 46.16 a 46.14,46.14 0 0 1 46.14,-46.14 v 0 a 46.14,46.14 0 0 1 46.19,46.14 z" style="fill:url(#linear-gradient-4)" id="path20" /> </svg>
